<?xml version="1.0" encoding="UTF-8" standalone="no"?>
<svg
   xmlns:dc="http://purl.org/dc/elements/1.1/"
   xmlns:cc="http://creativecommons.org/ns#"
   xmlns:rdf="http://www.w3.org/1999/02/22-rdf-syntax-ns#"
   xmlns:svg="http://www.w3.org/2000/svg"
   xmlns="http://www.w3.org/2000/svg"
   xmlns:sodipodi="http://sodipodi.sourceforge.net/DTD/sodipodi-0.dtd"
   xmlns:inkscape="http://www.inkscape.org/namespaces/inkscape"
   sodipodi:docname="Fastag Logo.svg"
   inkscape:version="1.0 (4035a4fb49, 2020-05-01)"
   id="svg1080"
   version="1.1"
   viewBox="0 0 73.434998 16.325001"
   height="16.325001mm"
   width="73.434998mm">
  <defs
     id="defs1074" />
  <sodipodi:namedview
     inkscape:window-maximized="1"
     inkscape:window-y="-8"
     inkscape:window-x="-8"
     inkscape:window-height="1002"
     inkscape:window-width="1920"
     showgrid="false"
     inkscape:document-rotation="0"
     inkscape:current-layer="layer1"
     inkscape:document-units="mm"
     inkscape:cy="22.402472"
     inkscape:cx="162.73431"
     inkscape:zoom="4"
     inkscape:pageshadow="2"
     inkscape:pageopacity="0.0"
     borderopacity="1.0"
     bordercolor="#666666"
     pagecolor="#ffffff"
     id="base" />
  <metadata
     id="metadata1077">
    <rdf:RDF>
      <cc:Work
         rdf:about="">
        <dc:format>image/svg+xml</dc:format>
        <dc:type
           rdf:resource="http://purl.org/dc/dcmitype/StillImage" />
        <dc:title></dc:title>
      </cc:Work>
    </rdf:RDF>
  </metadata>
  <g
     id="layer1"
     inkscape:groupmode="layer"
     inkscape:label="Layer 1">
    <g
       id="g20"
       transform="matrix(0.35277777,0,0,-0.35277777,71.385677,2.5393634)">
      <path
         d="m 0,0 h -2.962 l 0.614,-1.016 h -59.314 -35.791 -86.24 l -3.817,-7.5 h 86.24 35.791 63.131 L -2.962,-9.533 H 0 l 5.797,4.767 z"
         style="fill:#211d1d;fill-opacity:1;fill-rule:nonzero;stroke:none"
         id="path22" />
    </g>
    <g
       id="g24"
       transform="matrix(0.35277777,0,0,-0.35277777,39.578488,6.360833)">
      <path
         d="M 0,0 -8.673,-17.037 H 3.098 L 11.771,0 Z"
         style="fill:#211d1d;fill-opacity:1;fill-rule:nonzero;stroke:none"
         id="path26" />
    </g>
    <g
       id="g28"
       transform="matrix(0.35277777,0,0,-0.35277777,4.8206086,6.360833)">
      <path
         d="M 0,0 -8.672,-17.037 H 2.77 l 4.973,9.773 H 22.619 L 26.317,0 Z"
         style="fill:#211d1d;fill-opacity:1;fill-rule:nonzero;stroke:none"
         id="path30" />
    </g>
    <g
       id="g40"
       transform="matrix(0.35277777,0,0,-0.35277777,18.815938,6.2967642)">
      <path
         d="M 0,0 C -3.57,0 -6.841,-2.004 -8.458,-5.187 L -14.676,-17.4 h 7.429 l 6.448,12.666 h 11.156 l -0.83,-1.632 h -9.19 l -2.408,-4.733 H 7.117 L 3.911,-17.4 H 11.34 L 20.196,0 Z"
         style="fill:#211d1d;fill-opacity:1;fill-rule:nonzero;stroke:none"
         id="path42" />
    </g>
    <g
       id="g44"
       transform="matrix(0.35277777,0,0,-0.35277777,25.102218,10.833273)">
      <path
         d="m 0,0 -2.445,-4.806 h 22.861 c 4.158,0 7.529,3.371 7.529,7.53 0,2.059 -1.67,3.728 -3.729,3.728 H 10.942 l 0.975,1.916 h 17.625 l 2.42,4.755 H 13.394 C 9.71,13.123 5.557,11.171 3.283,6.452 2.226,4.377 3.735,1.916 6.064,1.916 H 20.076 L 19.099,0 Z"
         style="fill:#211d1d;fill-opacity:1;fill-rule:nonzero;stroke:none"
         id="path46" />
    </g>
    <g
       id="g48"
       transform="matrix(0.35277777,0,0,-0.35277777,51.194688,10.170444)">
      <path
         d="M 0,0 2.321,4.56 H -8.667 c -3.578,0 -6.851,-2.007 -8.476,-5.194 l -0.68,-1.337 c -1.08,-2.117 0.459,-4.626 2.836,-4.626 H 6.349 l 6.962,13.675 c 0.95,1.868 -0.407,4.08 -2.502,4.08 h -20.96 L -12.66,6.23 H 5.266 L 4.416,4.56 1.245,-1.671 H -10.136 L -9.355,0 Z"
         style="fill:#211d1d;fill-opacity:1;fill-rule:nonzero;stroke:none"
         id="path50" />
    </g>
    <g
       id="g52"
       transform="matrix(0.35277777,0,0,-0.35277777,62.710588,10.606935)">
      <path
         d="m 0,0 h -11.082 l 4.089,8.031 H 4.089 Z M 9.713,12.568 H -7.513 c -2.897,0 -5.55,-1.626 -6.864,-4.209 l -4.665,-9.168 c -0.948,-1.865 0.405,-4.073 2.496,-4.073 H -2.485 L -5.04,-9.904 h -100.019 l 1.232,1.456 h -2.408 l -4.715,-3.876 4.715,-3.876 h 2.408 l -1.232,1.456 h 99.871 c 3.317,0 6.354,1.862 7.859,4.819 L 12.12,8.642 c 0.915,1.797 -0.39,3.926 -2.407,3.926"
         style="fill:#211d1d;fill-opacity:1;fill-rule:nonzero;stroke:none"
         id="path54" />
    </g>
    <g
       id="g56"
       transform="matrix(0.35277777,0,0,-0.35277777,36.802447,2.6947637)">
      <path
         d="M 0,0 -3.816,-7.5 H 31.975 L 35.793,0 Z"
         style="fill:#3db13d;fill-opacity:1;fill-rule:nonzero;stroke:none"
         id="path58" />
    </g>
    <g
       id="g60"
       transform="matrix(0.35277777,0,0,-0.35277777,6.3794966,2.6947637)">
      <path
         d="M 0,0 -3.816,-7.5 H 82.422 L 86.238,0 Z"
         style="fill:#e87b17;fill-opacity:1;fill-rule:nonzero;stroke:none"
         id="path62" />
    </g>
    <g
       id="g64"
       transform="matrix(0.35277777,0,0,-0.35277777,71.182438,2.3359544)">
      <path
         d="m 0,0 h -2.962 l 0.614,-1.017 h -59.316 l -3.815,-7.499 H -2.348 L -2.962,-9.533 H 0 l 5.797,4.766 z"
         style="fill:#e87b17;fill-opacity:1;fill-rule:nonzero;stroke:none"
         id="path66" />
    </g>
    <g
       id="g68"
       transform="matrix(0.35277777,0,0,-0.35277777,52.433539,4.2188749)">
      <path
         d="m 0,0 h -6.861 c -0.244,0 -0.403,0.257 -0.291,0.473 l 0.172,0.34 c 0.103,0.202 0.31,0.33 0.538,0.33 H 0.419 C 0.662,1.143 0.82,0.885 0.71,0.669 L 0.536,0.329 C 0.435,0.127 0.226,0 0,0"
         style="fill:#e6c70d;fill-opacity:1;fill-rule:nonzero;stroke:none"
         id="path70" />
    </g>
    <g
       id="g72"
       transform="matrix(0.35277777,0,0,-0.35277777,57.901947,4.2188749)">
      <path
         d="M 0,0 H -6.861 C -7.104,0 -7.263,0.257 -7.15,0.473 l 0.171,0.34 c 0.104,0.202 0.31,0.33 0.539,0.33 h 6.861 c 0.243,0 0.399,-0.258 0.29,-0.474 L 0.538,0.329 C 0.436,0.127 0.228,0 0,0"
         style="fill:#e6c70d;fill-opacity:1;fill-rule:nonzero;stroke:none"
         id="path74" />
    </g>
    <g
       id="g76"
       transform="matrix(0.35277777,0,0,-0.35277777,63.371027,4.2188749)">
      <path
         d="m 0,0 h -6.861 c -0.244,0 -0.403,0.257 -0.291,0.473 l 0.173,0.34 c 0.102,0.202 0.309,0.33 0.537,0.33 H 0.419 C 0.663,1.143 0.82,0.885 0.71,0.669 L 0.536,0.329 C 0.435,0.127 0.226,0 0,0"
         style="fill:#e6c70d;fill-opacity:1;fill-rule:nonzero;stroke:none"
         id="path78" />
    </g>
    <g
       id="g80"
       transform="matrix(0.35277777,0,0,-0.35277777,68.839428,4.2188749)">
      <path
         d="M 0,0 H -6.859 C -7.104,0 -7.263,0.257 -7.15,0.473 l 0.171,0.34 c 0.104,0.202 0.31,0.33 0.539,0.33 h 6.861 c 0.243,0 0.399,-0.258 0.29,-0.474 L 0.538,0.329 C 0.436,0.127 0.228,0 0,0"
         style="fill:#e6c70d;fill-opacity:1;fill-rule:nonzero;stroke:none"
         id="path82" />
    </g>
    <g
       id="g84"
       transform="matrix(0.35277777,0,0,-0.35277777,41.360298,4.902873)">
      <path
         d="m 0,0 0.083,-0.75 c 0.534,0.191 2.406,0.751 3.502,-0.254 l 1.039,0.693 C 4.295,0.103 2.908,1.478 0,0"
         style="fill:#ffffff;fill-opacity:1;fill-rule:nonzero;stroke:none"
         id="path86" />
    </g>
    <g
       id="g88"
       transform="matrix(0.35277777,0,0,-0.35277777,41.277298,4.1584043)">
      <path
         d="M 0,0 0.108,-0.972 C 4.462,1.244 6.206,-0.993 6.453,-1.357 L 7.727,-0.51 C 6.627,1.762 2.099,1.395 0,0"
         style="fill:#ffffff;fill-opacity:1;fill-rule:nonzero;stroke:none"
         id="path90" />
    </g>
    <g
       id="g92"
       transform="matrix(0.35277777,0,0,-0.35277777,41.192877,3.399963)">
      <path
         d="m 0,0 0.104,-0.942 c 5.497,2.43 8.271,1.233 9.459,-0.652 l 1.321,0.881 C 8.538,3.047 2.863,1.797 0,0"
         style="fill:#ffffff;fill-opacity:1;fill-rule:nonzero;stroke:none"
         id="path94" />
    </g>
    <g
       id="g96"
       transform="matrix(0.35277777,0,0,-0.35277777,41.074698,2.3380049)">
      <path
         d="m 0,0 0.159,-1.443 c 5.273,3.235 11.279,2.599 13.152,-0.885 l 1.721,1.148 C 12.965,2.833 6.436,3.696 0,0"
         style="fill:#e87b17;fill-opacity:1;fill-rule:nonzero;stroke:none"
         id="path98" />
    </g>
    <g
       id="g100"
       transform="matrix(0.35277777,0,0,-0.35277777,40.926558,1.0068332)">
      <path
         d="M 0,0 0.22,-1.982 C 7.201,1.75 14.723,1.323 17.485,-3.599 l 2.481,1.655 C 17.841,3.952 5.935,4.079 0,0"
         style="fill:#e87b17;fill-opacity:1;fill-rule:nonzero;stroke:none"
         id="path102" />
    </g>
    <g
       id="g104"
       transform="matrix(0.35277777,0,0,-0.35277777,43.527629,6.1572441)">
      <path
         d="m 0,0 h -11.771 l -8.671,-17.037 h 11.769 z"
         style="fill:#3db13d;fill-opacity:1;fill-rule:nonzero;stroke:none"
         id="path106" />
    </g>
    <g
       id="g108"
       transform="matrix(0.35277777,0,0,-0.35277777,13.901527,6.1572441)">
      <path
         d="m 0,0 h -26.32 l -8.67,-17.037 h 11.441 l 4.976,9.772 h 14.875 z"
         style="fill:#e87b17;fill-opacity:1;fill-rule:nonzero;stroke:none"
         id="path110" />
    </g>
    <g
       id="g112"
       transform="matrix(0.35277777,0,0,-0.35277777,18.611989,6.0934927)">
      <path
         d="m 0,0 c -3.57,0 -6.839,-2.004 -8.458,-5.186 l -6.217,-12.213 h 7.43 l 6.448,12.667 H 10.359 L 9.527,-6.365 H 0.338 l -2.409,-4.734 h 9.19 l -3.206,-6.3 H 11.34 L 20.197,0 Z"
         style="fill:#e87b17;fill-opacity:1;fill-rule:nonzero;stroke:none"
         id="path114" />
    </g>
    <g
       id="g116"
       transform="matrix(0.35277777,0,0,-0.35277777,35.320357,7.6778945)">
      <path
         d="m 0,0 2.421,4.756 h -18.57 c -3.684,0 -7.837,-1.953 -10.111,-6.67 -1.055,-2.077 0.454,-4.538 2.783,-4.538 h 14.01 l -0.975,-1.915 h -19.101 l -2.444,-4.807 h 22.862 c 4.156,0 7.527,3.372 7.527,7.529 0,2.061 -1.668,3.731 -3.728,3.731 H -18.6 L -17.624,0 Z"
         style="fill:#e87b17;fill-opacity:1;fill-rule:nonzero;stroke:none"
         id="path118" />
    </g>
    <g
       id="g120"
       transform="matrix(0.35277777,0,0,-0.35277777,54.804097,6.0304531)">
      <path
         d="m 0,0 h -20.96 l -2.508,-4.928 h 17.927 l -0.852,-1.672 -3.17,-6.23 h -11.381 l 0.782,1.672 h 9.353 l 2.32,4.558 h -10.988 c -3.576,0 -6.849,-2.005 -8.474,-5.192 l -0.68,-1.336 c -1.08,-2.117 0.459,-4.628 2.835,-4.628 H -4.459 L 2.5,-4.081 C 3.45,-2.213 2.096,0 0,0"
         style="fill:#3db13d;fill-opacity:1;fill-rule:nonzero;stroke:none"
         id="path122" />
    </g>
    <g
       id="g124"
       transform="matrix(0.35277777,0,0,-0.35277777,62.507319,10.403664)">
      <path
         d="m 0,0 h -11.082 l 4.089,8.032 H 4.088 Z M 9.713,12.568 H -7.515 c -2.896,0 -5.548,-1.626 -6.862,-4.207 l -4.665,-9.17 c -0.948,-1.863 0.405,-4.071 2.496,-4.071 h 14.061 l -2.557,-5.023 h -100.017 l 1.232,1.457 h -2.409 l -4.715,-3.877 4.715,-3.876 h 2.409 l -1.232,1.457 h 99.871 c 3.317,0 6.352,1.861 7.859,4.817 L 12.12,8.644 c 0.914,1.795 -0.391,3.924 -2.407,3.924"
         style="fill:#3db13d;fill-opacity:1;fill-rule:nonzero;stroke:none"
         id="path126" />
    </g>
    <g
       id="g128"
       transform="matrix(0.35277777,0,0,-0.35277777,33.598838,14.893643)">
      <path
         d="M 0,0 H -4.858 C -5.03,0 -5.142,0.183 -5.064,0.336 l 0.123,0.24 c 0.073,0.143 0.218,0.233 0.38,0.233 h 4.858 c 0.172,0 0.283,-0.182 0.204,-0.336 L 0.38,0.233 C 0.308,0.091 0.159,0 0,0"
         style="fill:#e6c70d;fill-opacity:1;fill-rule:nonzero;stroke:none"
         id="path130" />
    </g>
    <g
       id="g132"
       transform="matrix(0.35277777,0,0,-0.35277777,41.897407,14.893643)">
      <path
         d="m 0,0 h -4.857 c -0.174,0 -0.286,0.183 -0.206,0.336 l 0.123,0.24 c 0.072,0.143 0.218,0.233 0.379,0.233 h 4.859 c 0.17,0 0.282,-0.182 0.204,-0.336 L 0.381,0.233 C 0.308,0.091 0.16,0 0,0"
         style="fill:#e6c70d;fill-opacity:1;fill-rule:nonzero;stroke:none"
         id="path134" />
    </g>
    <g
       id="g136"
       transform="matrix(0.35277777,0,0,-0.35277777,50.195939,14.893643)">
      <path
         d="M 0,0 H -4.856 C -5.03,0 -5.142,0.183 -5.062,0.336 l 0.121,0.24 c 0.073,0.143 0.22,0.233 0.381,0.233 h 4.857 c 0.172,0 0.284,-0.182 0.205,-0.336 L 0.382,0.233 C 0.309,0.091 0.16,0 0,0"
         style="fill:#e6c70d;fill-opacity:1;fill-rule:nonzero;stroke:none"
         id="path138" />
    </g>
    <g
       id="g140"
       transform="matrix(0.35277777,0,0,-0.35277777,58.494468,14.893643)">
      <path
         d="M 0,0 H -4.856 C -5.03,0 -5.141,0.183 -5.063,0.336 l 0.123,0.24 c 0.073,0.143 0.218,0.233 0.381,0.233 h 4.857 c 0.172,0 0.283,-0.182 0.204,-0.336 L 0.381,0.233 C 0.309,0.091 0.161,0 0,0"
         style="fill:#e6c70d;fill-opacity:1;fill-rule:nonzero;stroke:none"
         id="path142" />
    </g>
    <g
       id="g144"
       transform="matrix(0.35277777,0,0,-0.35277777,0.00624765,15.401114)">
      <path
         d="M 0,0 1.986,3.87 H 5.499 L 5.338,3.56 H 2.324 L 1.608,2.162 H 4.327 L 4.166,1.85 H 1.447 L 0.658,0.312 H 3.744 L 3.584,0 Z"
         style="fill:#211d1d;fill-opacity:1;fill-rule:nonzero;stroke:none"
         id="path146" />
    </g>
    <g
       id="g148"
       transform="matrix(0.35277777,0,0,-0.35277777,2.8630786,14.885033)">
      <path
         d="m 0,0 c -0.214,-0.059 -0.423,-0.095 -0.622,-0.113 -0.2,-0.019 -0.399,-0.033 -0.593,-0.042 -0.347,-0.019 -0.639,-0.075 -0.874,-0.168 -0.236,-0.092 -0.404,-0.235 -0.502,-0.424 -0.043,-0.086 -0.058,-0.161 -0.043,-0.223 0.014,-0.064 0.048,-0.116 0.102,-0.156 0.054,-0.042 0.127,-0.073 0.217,-0.091 0.09,-0.02 0.186,-0.03 0.288,-0.03 0.176,0 0.356,0.016 0.54,0.048 0.181,0.033 0.355,0.081 0.517,0.148 0.165,0.067 0.313,0.15 0.444,0.253 0.13,0.102 0.231,0.223 0.303,0.361 z m -0.657,0.161 c 0.087,0.007 0.191,0.018 0.313,0.032 0.122,0.014 0.226,0.034 0.314,0.06 C 0.056,0.278 0.122,0.32 0.168,0.38 0.217,0.438 0.253,0.492 0.278,0.543 0.363,0.707 0.36,0.843 0.27,0.948 0.181,1.055 -0.035,1.106 -0.378,1.106 -0.529,1.106 -0.673,1.097 -0.811,1.077 -0.947,1.059 -1.077,1.023 -1.197,0.976 -1.317,0.928 -1.429,0.862 -1.53,0.782 -1.632,0.701 -1.727,0.6 -1.807,0.479 h -0.448 c 0.101,0.165 0.224,0.304 0.37,0.421 0.151,0.117 0.311,0.212 0.489,0.286 0.176,0.073 0.366,0.126 0.566,0.161 0.201,0.034 0.404,0.05 0.61,0.05 0.191,0 0.362,-0.015 0.514,-0.044 C 0.446,1.321 0.569,1.273 0.659,1.207 0.75,1.141 0.803,1.052 0.816,0.941 0.83,0.83 0.795,0.693 0.713,0.532 L -0.064,-0.984 C -0.13,-1.11 -0.141,-1.189 -0.096,-1.223 -0.052,-1.257 0.075,-1.25 0.287,-1.199 L 0.155,-1.451 C 0.119,-1.459 0.063,-1.47 -0.01,-1.484 c -0.074,-0.014 -0.14,-0.021 -0.204,-0.021 -0.069,0 -0.133,0.005 -0.191,0.015 -0.071,0.009 -0.119,0.024 -0.151,0.052 -0.03,0.026 -0.048,0.058 -0.056,0.096 -0.006,0.038 -0.004,0.079 0.008,0.125 0.014,0.043 0.034,0.091 0.059,0.143 -0.263,-0.152 -0.535,-0.266 -0.814,-0.345 -0.28,-0.079 -0.558,-0.119 -0.839,-0.119 -0.165,0 -0.316,0.016 -0.454,0.048 -0.139,0.033 -0.247,0.084 -0.329,0.151 -0.083,0.068 -0.133,0.152 -0.152,0.25 -0.016,0.099 0.009,0.216 0.079,0.353 0.243,0.471 0.829,0.752 1.757,0.838 z"
         style="fill:#211d1d;fill-opacity:1;fill-rule:nonzero;stroke:none"
         id="path150" />
    </g>
    <g
       id="g152"
       transform="matrix(0.35277777,0,0,-0.35277777,3.7698186,15.093813)">
      <path
         d="m 0,0 c -0.055,-0.24 -0.019,-0.409 0.11,-0.508 0.127,-0.099 0.358,-0.147 0.689,-0.147 0.163,0 0.309,0.014 0.44,0.043 0.133,0.027 0.249,0.067 0.349,0.115 0.1,0.048 0.186,0.103 0.258,0.164 0.07,0.061 0.124,0.125 0.157,0.193 C 2.074,-0.003 2.065,0.098 1.979,0.164 1.895,0.23 1.771,0.282 1.609,0.32 1.447,0.357 1.268,0.39 1.073,0.416 0.875,0.443 0.7,0.484 0.548,0.538 0.394,0.592 0.284,0.669 0.215,0.768 0.146,0.87 0.159,1.011 0.254,1.193 c 0.12,0.233 0.333,0.425 0.642,0.574 0.308,0.147 0.675,0.222 1.1,0.222 0.411,0 0.71,-0.067 0.899,-0.202 C 3.082,1.653 3.122,1.429 3.013,1.114 H 2.565 C 2.638,1.327 2.604,1.479 2.465,1.567 2.327,1.654 2.119,1.698 1.841,1.698 1.562,1.698 1.326,1.654 1.135,1.567 0.943,1.479 0.811,1.364 0.735,1.22 0.674,1.094 0.682,1 0.77,0.934 0.854,0.867 0.977,0.813 1.138,0.771 1.296,0.729 1.473,0.693 1.667,0.661 1.859,0.63 2.031,0.583 2.183,0.525 2.332,0.466 2.442,0.386 2.51,0.285 2.579,0.185 2.566,0.045 2.475,-0.134 2.407,-0.267 2.309,-0.384 2.177,-0.487 2.046,-0.589 1.896,-0.674 1.724,-0.741 1.552,-0.811 1.364,-0.861 1.157,-0.896 0.951,-0.929 0.735,-0.946 0.511,-0.946 c -0.225,0 -0.41,0.024 -0.559,0.072 -0.149,0.05 -0.263,0.116 -0.341,0.202 -0.079,0.086 -0.121,0.187 -0.131,0.301 -0.009,0.115 0.016,0.238 0.074,0.371 z"
         style="fill:#211d1d;fill-opacity:1;fill-rule:nonzero;stroke:none"
         id="path154" />
    </g>
    <g
       id="g156"
       transform="matrix(0.35277777,0,0,-0.35277777,5.0303966,15.666403)">
      <path
         d="m 0,0 c 0.056,-0.008 0.11,-0.015 0.168,-0.021 0.059,-0.007 0.117,-0.01 0.183,-0.01 0.121,0 0.235,0.028 0.342,0.084 0.11,0.058 0.209,0.126 0.301,0.208 0.095,0.08 0.18,0.164 0.259,0.251 C 1.332,0.6 1.409,0.675 1.484,0.735 L 1.449,3.536 H 1.94 L 1.929,1.145 4.374,3.536 H 4.852 L 2.026,0.79 C 1.849,0.615 1.682,0.457 1.529,0.317 1.378,0.178 1.231,0.059 1.089,-0.04 0.949,-0.139 0.81,-0.214 0.674,-0.266 0.537,-0.318 0.393,-0.344 0.242,-0.344 c -0.079,0 -0.152,0.003 -0.218,0.01 -0.067,0.008 -0.128,0.016 -0.182,0.027 z"
         style="fill:#211d1d;fill-opacity:1;fill-rule:nonzero;stroke:none"
         id="path158" />
    </g>
    <g
       id="g160"
       transform="matrix(0.35277777,0,0,-0.35277777,8.3821386,15.404574)">
      <path
         d="m 0,0 c -0.058,-0.007 -0.135,-0.02 -0.231,-0.038 -0.097,-0.019 -0.201,-0.027 -0.308,-0.027 -0.22,0 -0.367,0.04 -0.44,0.122 -0.074,0.08 -0.057,0.224 0.05,0.431 l 1.045,2.037 h -0.535 l 0.139,0.269 h 0.536 l 0.396,0.775 h 0.44 L 0.695,2.794 h 0.71 L 1.267,2.525 H 0.558 L -0.423,0.617 C -0.457,0.549 -0.486,0.491 -0.507,0.44 -0.527,0.39 -0.535,0.349 -0.526,0.317 c 0.008,-0.032 0.034,-0.056 0.079,-0.07 0.042,-0.015 0.111,-0.021 0.203,-0.021 0.059,0 0.122,0.003 0.186,0.009 0.066,0.008 0.13,0.018 0.194,0.029 z"
         style="fill:#211d1d;fill-opacity:1;fill-rule:nonzero;stroke:none"
         id="path162" />
    </g>
    <g
       id="g164"
       transform="matrix(0.35277777,0,0,-0.35277777,10.438168,14.909833)">
      <path
         d="M 0,0 C 0.085,0.165 0.141,0.319 0.164,0.462 0.189,0.606 0.177,0.73 0.129,0.836 0.081,0.942 -0.008,1.025 -0.14,1.086 c -0.128,0.06 -0.31,0.091 -0.545,0.091 -0.229,0 -0.444,-0.033 -0.642,-0.1 C -1.524,1.011 -1.702,0.924 -1.86,0.815 -2.021,0.705 -2.16,0.579 -2.281,0.438 -2.404,0.297 -2.503,0.15 -2.58,0 c -0.09,-0.172 -0.142,-0.33 -0.16,-0.476 -0.019,-0.145 0,-0.269 0.053,-0.374 0.056,-0.103 0.148,-0.183 0.28,-0.241 0.132,-0.056 0.303,-0.086 0.512,-0.086 0.229,0 0.444,0.032 0.642,0.099 0.197,0.066 0.377,0.155 0.536,0.266 0.159,0.111 0.299,0.236 0.421,0.376 C -0.176,-0.295 -0.077,-0.15 0,0 m -2.043,-1.468 c -0.242,0.004 -0.456,0.036 -0.635,0.098 -0.182,0.06 -0.322,0.152 -0.417,0.273 -0.096,0.123 -0.145,0.274 -0.143,0.457 0,0.183 0.063,0.396 0.189,0.64 0.105,0.205 0.239,0.396 0.403,0.572 0.165,0.178 0.355,0.333 0.568,0.464 0.216,0.135 0.453,0.239 0.712,0.317 0.261,0.076 0.536,0.114 0.83,0.114 C -0.238,1.467 0,1.429 0.181,1.353 0.361,1.275 0.491,1.171 0.57,1.039 0.651,0.909 0.68,0.754 0.658,0.575 0.637,0.396 0.575,0.205 0.469,0 0.356,-0.223 0.211,-0.423 0.035,-0.603 -0.14,-0.782 -0.336,-0.936 -0.558,-1.064 -0.777,-1.192 -1.015,-1.293 -1.266,-1.362 -1.521,-1.433 -1.78,-1.468 -2.043,-1.468"
         style="fill:#211d1d;fill-opacity:1;fill-rule:nonzero;stroke:none"
         id="path166" />
    </g>
    <g
       id="g168"
       transform="matrix(0.35277777,0,0,-0.35277777,13.921847,14.431683)">
      <path
         d="m 0,0 c 0.066,0.328 -0.003,0.564 -0.209,0.704 -0.208,0.14 -0.536,0.209 -0.987,0.209 -0.316,0 -0.614,-0.047 -0.892,-0.14 C -2.366,0.68 -2.619,0.555 -2.851,0.397 -3.079,0.239 -3.282,0.058 -3.459,-0.148 c -0.177,-0.206 -0.325,-0.424 -0.442,-0.653 -0.11,-0.216 -0.188,-0.428 -0.235,-0.636 -0.045,-0.207 -0.039,-0.392 0.021,-0.555 0.057,-0.163 0.18,-0.296 0.368,-0.395 0.187,-0.101 0.463,-0.151 0.824,-0.151 0.225,0 0.444,0.027 0.658,0.081 0.213,0.054 0.412,0.128 0.602,0.223 0.187,0.094 0.362,0.206 0.523,0.336 0.163,0.128 0.307,0.271 0.436,0.425 h 0.519 C -0.338,-1.659 -0.514,-1.836 -0.713,-2.003 -0.91,-2.171 -1.134,-2.316 -1.382,-2.441 -1.628,-2.567 -1.903,-2.666 -2.202,-2.739 -2.5,-2.813 -2.826,-2.85 -3.178,-2.85 c -0.405,0 -0.725,0.055 -0.958,0.164 -0.232,0.109 -0.391,0.257 -0.479,0.444 -0.088,0.185 -0.111,0.402 -0.067,0.647 0.042,0.246 0.134,0.506 0.277,0.783 0.19,0.37 0.414,0.683 0.67,0.94 0.256,0.259 0.537,0.469 0.84,0.633 0.304,0.162 0.624,0.28 0.96,0.354 0.335,0.073 0.68,0.11 1.032,0.11 0.269,0 0.507,-0.026 0.711,-0.079 C 0.014,1.095 0.18,1.018 0.305,0.913 0.429,0.809 0.51,0.682 0.548,0.529 0.583,0.377 0.571,0.2 0.513,0 Z"
         style="fill:#211d1d;fill-opacity:1;fill-rule:nonzero;stroke:none"
         id="path170" />
    </g>
    <g
       id="g172"
       transform="matrix(0.35277777,0,0,-0.35277777,14.370408,15.401114)">
      <path
         d="m 0,0 h -0.151 l 1.14,2.784 h 0.44 L 1.16,2.264 h 0.016 c 0.235,0.221 0.472,0.377 0.712,0.465 0.238,0.088 0.514,0.13 0.834,0.13 L 2.542,2.511 C 2.294,2.515 2.075,2.485 1.882,2.425 1.688,2.364 1.519,2.282 1.37,2.178 1.221,2.073 1.091,1.95 0.982,1.809 0.874,1.668 0.779,1.52 0.7,1.365 Z"
         style="fill:#211d1d;fill-opacity:1;fill-rule:nonzero;stroke:none"
         id="path174" />
    </g>
    <g
       id="g176"
       transform="matrix(0.35277777,0,0,-0.35277777,16.944238,14.418594)">
      <path
         d="m 0,0 h 0.44 l -1.428,-2.784 h -0.441 l 0.2,0.387 c -0.085,-0.05 -0.178,-0.102 -0.279,-0.156 -0.101,-0.055 -0.212,-0.103 -0.329,-0.148 -0.118,-0.045 -0.25,-0.083 -0.391,-0.113 -0.144,-0.031 -0.297,-0.045 -0.462,-0.045 -0.256,0 -0.456,0.025 -0.599,0.078 -0.146,0.051 -0.246,0.124 -0.303,0.217 -0.057,0.093 -0.079,0.202 -0.06,0.326 0.016,0.123 0.063,0.259 0.138,0.405 L -2.572,0 h 0.439 L -3.07,-1.827 c -0.124,-0.24 -0.142,-0.425 -0.057,-0.552 0.088,-0.128 0.304,-0.191 0.65,-0.191 0.181,0 0.357,0.027 0.528,0.078 0.171,0.052 0.33,0.126 0.475,0.219 0.146,0.092 0.277,0.203 0.397,0.332 0.12,0.129 0.222,0.27 0.3,0.424 z"
         style="fill:#211d1d;fill-opacity:1;fill-rule:nonzero;stroke:none"
         id="path178" />
    </g>
    <g
       id="g180"
       transform="matrix(0.35277777,0,0,-0.35277777,17.457527,15.401114)">
      <path
         d="M 0,0 1.43,2.784 H 1.869 L 0.44,0 Z M 1.719,3.392 1.965,3.87 H 2.447 L 2.203,3.392 Z"
         style="fill:#211d1d;fill-opacity:1;fill-rule:nonzero;stroke:none"
         id="path182" />
    </g>
    <g
       id="g184"
       transform="matrix(0.35277777,0,0,-0.35277777,18.517268,15.093813)">
      <path
         d="m 0,0 c -0.055,-0.24 -0.02,-0.409 0.108,-0.508 0.129,-0.099 0.358,-0.147 0.691,-0.147 0.163,0 0.308,0.014 0.44,0.043 0.132,0.027 0.249,0.067 0.35,0.115 0.099,0.048 0.185,0.103 0.257,0.164 0.068,0.061 0.122,0.125 0.156,0.193 0.07,0.137 0.062,0.238 -0.024,0.304 C 1.894,0.23 1.77,0.282 1.608,0.32 1.446,0.357 1.267,0.39 1.071,0.416 0.874,0.443 0.7,0.484 0.547,0.538 0.393,0.592 0.282,0.669 0.213,0.768 0.146,0.87 0.158,1.011 0.253,1.193 0.373,1.426 0.586,1.618 0.896,1.767 1.204,1.914 1.57,1.989 1.995,1.989 2.406,1.989 2.705,1.922 2.893,1.787 3.081,1.653 3.12,1.429 3.013,1.114 H 2.564 C 2.636,1.327 2.604,1.479 2.464,1.567 2.325,1.654 2.118,1.698 1.84,1.698 1.561,1.698 1.324,1.654 1.134,1.567 0.941,1.479 0.81,1.364 0.735,1.22 0.672,1.094 0.682,1 0.769,0.934 0.853,0.867 0.976,0.813 1.137,0.771 1.296,0.729 1.473,0.693 1.666,0.661 1.859,0.63 2.03,0.583 2.183,0.525 2.332,0.466 2.441,0.386 2.511,0.285 2.578,0.185 2.565,0.045 2.475,-0.134 2.406,-0.267 2.307,-0.384 2.177,-0.487 2.046,-0.589 1.895,-0.674 1.724,-0.741 1.552,-0.811 1.362,-0.861 1.156,-0.896 0.951,-0.929 0.735,-0.946 0.511,-0.946 c -0.226,0 -0.412,0.024 -0.561,0.072 -0.149,0.05 -0.262,0.116 -0.34,0.202 -0.078,0.086 -0.121,0.187 -0.131,0.301 -0.01,0.115 0.015,0.238 0.074,0.371 z"
         style="fill:#211d1d;fill-opacity:1;fill-rule:nonzero;stroke:none"
         id="path186" />
    </g>
    <g
       id="g188"
       transform="matrix(0.35277777,0,0,-0.35277777,21.181347,14.841644)">
      <path
         d="m 0,0 c 0.07,0.137 0.109,0.264 0.12,0.384 0.011,0.12 -0.013,0.224 -0.066,0.312 -0.056,0.087 -0.146,0.158 -0.27,0.21 -0.126,0.051 -0.286,0.078 -0.481,0.078 -0.197,0 -0.382,-0.027 -0.56,-0.081 C -1.434,0.85 -1.597,0.778 -1.747,0.687 -1.899,0.599 -2.036,0.496 -2.16,0.377 -2.284,0.259 -2.391,0.133 -2.478,0 Z m -2.616,-0.269 c -0.076,-0.15 -0.123,-0.292 -0.139,-0.427 -0.016,-0.134 0.004,-0.25 0.06,-0.349 0.053,-0.099 0.145,-0.178 0.276,-0.237 0.132,-0.059 0.303,-0.089 0.513,-0.089 0.288,0 0.563,0.056 0.826,0.167 0.263,0.111 0.479,0.269 0.653,0.473 h 0.491 c -0.123,-0.131 -0.256,-0.254 -0.4,-0.368 -0.147,-0.112 -0.309,-0.212 -0.483,-0.296 -0.175,-0.084 -0.366,-0.15 -0.569,-0.196 -0.206,-0.047 -0.427,-0.069 -0.668,-0.069 -0.302,0 -0.545,0.036 -0.725,0.113 -0.183,0.074 -0.31,0.178 -0.385,0.309 -0.074,0.13 -0.1,0.284 -0.077,0.462 0.022,0.177 0.086,0.368 0.19,0.571 0.105,0.205 0.244,0.397 0.417,0.576 0.172,0.18 0.368,0.336 0.586,0.471 0.217,0.134 0.454,0.239 0.708,0.317 0.255,0.076 0.52,0.114 0.792,0.114 0.525,0 0.867,-0.13 1.031,-0.393 C 0.644,0.615 0.594,0.233 0.33,-0.269 Z"
         style="fill:#211d1d;fill-opacity:1;fill-rule:nonzero;stroke:none"
         id="path190" />
    </g>
  </g>
</svg>
